<svg width="114" height="65" viewBox="0 0 114 65" fill="none" xmlns="http://www.w3.org/2000/svg">
<g filter="url(#filter0_d_3_599)">
<rect x="19" y="16" width="28.5943" height="28" rx="4.8762" fill="white"/>
</g>
<path d="M42.3244 31.9885C42.3245 31.3782 42.1526 30.7798 41.8275 30.2591C41.5025 29.7384 41.0369 29.3156 40.4821 29.0375C39.9274 28.7593 39.3049 28.6365 38.6834 28.6826C38.0619 28.7287 37.4655 28.9419 36.9598 29.2988C36.4542 29.6556 36.059 30.1422 35.8178 30.7049C35.5765 31.2676 35.4987 31.8846 35.5927 32.4878C35.6868 33.0911 35.9492 33.6572 36.3509 34.1238C36.7526 34.5904 37.2781 34.9394 37.8694 35.1322C37.7547 35.65 37.4623 36.1136 37.0411 36.4462C36.6199 36.7787 36.0951 36.9601 35.554 36.9601H33.5228C32.8944 36.9601 32.2917 36.7157 31.8473 36.2806C31.4029 35.8455 31.1532 35.2554 31.1532 34.64V31.5659C33.8385 31.0869 35.8925 28.7411 35.8925 25.9537V22.708C35.8925 22.4904 35.8487 22.2749 35.7636 22.0738C35.6786 21.8728 35.5539 21.6901 35.3967 21.5362C35.2396 21.3823 35.053 21.2602 34.8476 21.1769C34.6423 21.0936 34.4222 21.0508 34.1999 21.0508H32.8458C32.5765 21.0508 32.3182 21.1555 32.1277 21.342C31.9372 21.5285 31.8302 21.7814 31.8302 22.0451C31.8302 22.3088 31.9372 22.5617 32.1277 22.7482C32.3182 22.9347 32.5765 23.0395 32.8458 23.0395H33.8614V25.9537C33.8614 27.9755 32.2136 29.6427 30.1876 29.6684C29.6944 29.6748 29.2048 29.5853 28.7472 29.405C28.2897 29.2247 27.8733 28.9571 27.5222 28.6179C27.1711 28.2787 26.8923 27.8746 26.7021 27.4291C26.5118 26.9835 26.4139 26.5054 26.4139 26.0225V23.0395H27.4295C27.6988 23.0395 27.9571 22.9347 28.1476 22.7482C28.3381 22.5617 28.4451 22.3088 28.4451 22.0451C28.4451 21.7814 28.3381 21.5285 28.1476 21.342C27.9571 21.1555 27.6988 21.0508 27.4295 21.0508H26.0754C25.6265 21.0508 25.196 21.2254 24.8786 21.5362C24.5611 21.847 24.3828 22.2685 24.3828 22.708V26.0225C24.3829 27.3443 24.8576 28.6241 25.724 29.638C26.5903 30.6518 27.7932 31.3351 29.1221 31.5684V34.64C29.1234 35.7824 29.5875 36.8776 30.4125 37.6854C31.2375 38.4931 32.3561 38.9475 33.5228 38.9488H35.554C36.6286 38.9476 37.6658 38.5618 38.4702 37.864C39.2746 37.1663 39.7908 36.2048 39.9217 35.1604C40.6162 34.9531 41.2244 34.533 41.6569 33.9621C42.0894 33.3911 42.3233 32.6993 42.3244 31.9885ZM38.9392 33.3143C38.6714 33.3143 38.4096 33.2365 38.1869 33.0908C37.9642 32.9451 37.7906 32.7381 37.6882 32.4958C37.5857 32.2536 37.5589 31.987 37.6111 31.7298C37.6634 31.4726 37.7923 31.2364 37.9817 31.051C38.1711 30.8656 38.4123 30.7393 38.675 30.6882C38.9377 30.637 39.2099 30.6633 39.4573 30.7636C39.7048 30.864 39.9163 31.0339 40.065 31.2519C40.2138 31.4699 40.2932 31.7263 40.2932 31.9885C40.2932 32.3401 40.1506 32.6773 39.8966 32.9259C39.6427 33.1746 39.2983 33.3143 38.9392 33.3143Z" fill="url(#paint0_linear_3_599)"/>
<path d="M56.2913 37V23.9091H61.2003C62.206 23.9091 63.0498 24.0966 63.7316 24.4716C64.4177 24.8466 64.9354 25.3622 65.2849 26.0185C65.6386 26.6705 65.8154 27.4119 65.8154 28.2429C65.8154 29.0824 65.6386 29.8281 65.2849 30.4801C64.9312 31.1321 64.4092 31.6456 63.7188 32.0206C63.0285 32.3913 62.1783 32.5767 61.1684 32.5767H57.9148V30.6271H60.8488C61.4369 30.6271 61.9184 30.5249 62.2934 30.3203C62.6684 30.1158 62.9454 29.8345 63.1244 29.4766C63.3076 29.1186 63.3992 28.7074 63.3992 28.2429C63.3992 27.7784 63.3076 27.3693 63.1244 27.0156C62.9454 26.6619 62.6663 26.3871 62.287 26.1911C61.912 25.9908 61.4283 25.8906 60.836 25.8906H58.6627V37H56.2913ZM66.423 37V27.1818H68.6666V28.8182H68.7688C68.9478 28.2514 69.2546 27.8146 69.6893 27.5078C70.1282 27.1967 70.6289 27.0412 71.1914 27.0412C71.3193 27.0412 71.462 27.0476 71.6197 27.0604C71.7816 27.0689 71.9159 27.0838 72.0224 27.1051V29.2337C71.9244 29.1996 71.7688 29.1697 71.5558 29.1442C71.347 29.1143 71.1446 29.0994 70.9485 29.0994C70.5267 29.0994 70.1474 29.1911 69.8107 29.3743C69.4784 29.5533 69.2163 29.8026 69.0245 30.1222C68.8328 30.4418 68.7369 30.8104 68.7369 31.228V37H66.423ZM76.0881 37.1918C75.1293 37.1918 74.2983 36.9808 73.5952 36.5589C72.892 36.1371 72.3466 35.5469 71.9588 34.7884C71.5753 34.0298 71.3835 33.1435 71.3835 32.1293C71.3835 31.1151 71.5753 30.2266 71.9588 29.4638C72.3466 28.701 72.892 28.1087 73.5952 27.6868C74.2983 27.2649 75.1293 27.054 76.0881 27.054C77.0469 27.054 77.8778 27.2649 78.581 27.6868C79.2841 28.1087 79.8274 28.701 80.2109 29.4638C80.5987 30.2266 80.7926 31.1151 80.7926 32.1293C80.7926 33.1435 80.5987 34.0298 80.2109 34.7884C79.8274 35.5469 79.2841 36.1371 78.581 36.5589C77.8778 36.9808 77.0469 37.1918 76.0881 37.1918ZM76.1008 35.3381C76.6207 35.3381 77.0554 35.1953 77.4048 34.9098C77.7543 34.62 78.0142 34.2322 78.1846 33.7464C78.3594 33.2607 78.4467 32.7195 78.4467 32.1229C78.4467 31.522 78.3594 30.9787 78.1846 30.4929C78.0142 30.0028 77.7543 29.6129 77.4048 29.3232C77.0554 29.0334 76.6207 28.8885 76.1008 28.8885C75.5682 28.8885 75.125 29.0334 74.7713 29.3232C74.4219 29.6129 74.1598 30.0028 73.9851 30.4929C73.8146 30.9787 73.7294 31.522 73.7294 32.1229C73.7294 32.7195 73.8146 33.2607 73.9851 33.7464C74.1598 34.2322 74.4219 34.62 74.7713 34.9098C75.125 35.1953 75.5682 35.3381 76.1008 35.3381ZM82.2056 23.9091L85.6125 34.2131H85.7468L89.1473 23.9091H91.7553L87.1402 37H84.2127L79.604 23.9091H82.2056ZM92.0273 37V27.1818H94.3412V37H92.0273ZM93.1906 25.7884C92.8241 25.7884 92.5088 25.6669 92.2446 25.424C91.9804 25.1768 91.8483 24.8807 91.8483 24.5355C91.8483 24.1861 91.9804 23.8899 92.2446 23.647C92.5088 23.3999 92.8241 23.2763 93.1906 23.2763C93.5614 23.2763 93.8767 23.3999 94.1366 23.647C94.4008 23.8899 94.5329 24.1861 94.5329 24.5355C94.5329 24.8807 94.4008 25.1768 94.1366 25.424C93.8767 25.6669 93.5614 25.7884 93.1906 25.7884ZM100.273 27.1818V28.9716H94.6291V27.1818H100.273ZM96.0226 24.8295H98.3365V34.0469C98.3365 34.358 98.3834 34.5966 98.4772 34.7628C98.5752 34.9247 98.703 35.0355 98.8607 35.0952C99.0183 35.1548 99.1931 35.1847 99.3848 35.1847C99.5297 35.1847 99.6618 35.174 99.7811 35.1527C99.9047 35.1314 99.9985 35.1122 100.062 35.0952L100.452 36.9041C100.329 36.9467 100.152 36.9936 99.9218 37.0447C99.6959 37.0959 99.4189 37.1257 99.0908 37.1342C98.5112 37.1513 97.9892 37.0639 97.5247 36.8722C97.0603 36.6761 96.6916 36.3736 96.4189 35.9645C96.1505 35.5554 96.0183 35.044 96.0226 34.4304V24.8295ZM103.684 37.1982C103.062 37.1982 102.501 37.0874 102.003 36.8658C101.508 36.6399 101.116 36.3075 100.827 35.8686C100.541 35.4297 100.398 34.8885 100.398 34.245C100.398 33.6911 100.501 33.233 100.705 32.8707C100.91 32.5085 101.189 32.2188 101.542 32.0014C101.896 31.7841 102.295 31.62 102.738 31.5092C103.185 31.3942 103.648 31.3111 104.125 31.2599C104.7 31.2003 105.167 31.147 105.525 31.1001C105.883 31.049 106.143 30.9723 106.305 30.87C106.471 30.7635 106.554 30.5994 106.554 30.3778V30.3395C106.554 29.858 106.411 29.4851 106.126 29.2209C105.84 28.9567 105.429 28.8246 104.892 28.8246C104.325 28.8246 103.876 28.9482 103.543 29.1953C103.215 29.4425 102.993 29.7344 102.878 30.071L100.718 29.7642C100.888 29.1676 101.17 28.669 101.562 28.2685C101.954 27.8636 102.433 27.5611 103 27.3608C103.567 27.1562 104.193 27.054 104.879 27.054C105.352 27.054 105.823 27.1094 106.292 27.2202C106.761 27.331 107.189 27.5142 107.577 27.7699C107.964 28.0213 108.275 28.3643 108.51 28.799C108.748 29.2337 108.868 29.777 108.868 30.429V37H106.643V35.6513H106.567C106.426 35.924 106.228 36.1797 105.972 36.4183C105.721 36.6527 105.403 36.8423 105.02 36.9872C104.64 37.1278 104.195 37.1982 103.684 37.1982ZM104.285 35.4979C104.749 35.4979 105.152 35.4062 105.493 35.223C105.834 35.0355 106.096 34.7884 106.279 34.4815C106.466 34.1747 106.56 33.8402 106.56 33.478V32.321C106.488 32.3807 106.364 32.4361 106.189 32.4872C106.019 32.5384 105.827 32.5831 105.614 32.6214C105.401 32.6598 105.19 32.6939 104.981 32.7237C104.773 32.7536 104.591 32.7791 104.438 32.8004C104.093 32.8473 103.784 32.924 103.511 33.0305C103.238 33.1371 103.023 33.2862 102.866 33.478C102.708 33.6655 102.629 33.9084 102.629 34.2067C102.629 34.6328 102.785 34.9545 103.096 35.1719C103.407 35.3892 103.803 35.4979 104.285 35.4979ZM112.158 23.9091V37H109.844V23.9091H112.158Z" fill="black"/>
<defs>
<filter id="filter0_d_3_599" x="0.714245" y="0.152345" width="65.1659" height="64.5715" filterUnits="userSpaceOnUse" color-interpolation-filters="sRGB">
<feFlood flood-opacity="0" result="BackgroundImageFix"/>
<feColorMatrix in="SourceAlpha" type="matrix" values="0 0 0 0 0 0 0 0 0 0 0 0 0 0 0 0 0 0 127 0" result="hardAlpha"/>
<feOffset dy="2.4381"/>
<feGaussianBlur stdDeviation="9.14288"/>
<feComposite in2="hardAlpha" operator="out"/>
<feColorMatrix type="matrix" values="0 0 0 0 0 0 0 0 0 0 0 0 0 0 0 0 0 0 0.09 0"/>
<feBlend mode="normal" in2="BackgroundImageFix" result="effect1_dropShadow_3_599"/>
<feBlend mode="normal" in="SourceGraphic" in2="effect1_dropShadow_3_599" result="shape"/>
</filter>
<linearGradient id="paint0_linear_3_599" x1="22.9251" y1="23.741" x2="36.8418" y2="39.2401" gradientUnits="userSpaceOnUse">
<stop stop-color="#D86D6B"/>
<stop offset="0.228785" stop-color="#F5854E"/>
<stop offset="0.408008" stop-color="#F0C971"/>
<stop offset="0.634525" stop-color="#3CC6C1"/>
<stop offset="0.790545" stop-color="#419E80"/>
<stop offset="1" stop-color="#4188C1"/>
</linearGradient>
</defs>
</svg>
